# File produced by Open Asset Import Library (http://www.assimp.sf.net)
# (assimp v3.1.187496374)

mtllib clamp_lights.obj.mtl

# 252 vertex positions
v  43.0421 -6.5 166.322
v  40.8721 -6.5 164.849
v  40.8721 0.5 164.849
v  43.0421 0.5 166.322
v  38.3019 0.5 163.222
v  38.3019 -6.5 163.222
v  37.923 0.5 162.972
v  37.923 -6.5 162.972
v  37.5428 0.5 162.724
v  37.5428 -6.5 162.724
v  37.1598 0.5 162.472
v  37.1598 -6.5 162.472
v  36.7726 0.5 162.21
v  36.7726 -6.5 162.21
v  36.3794 0.5 161.93
v  36.3794 -6.5 161.93
v  35.9789 0.5 161.627
v  35.9789 -6.5 161.627
v  35.5695 0.5 161.293
v  35.5695 -6.5 161.293
v  35.1469 0.5 160.928
v  35.1469 -6.5 160.928
v  34.7113 0.5 160.537
v  34.7113 -6.5 160.537
v  34.2672 0.5 160.124
v  34.2672 -6.5 160.124
v  33.8193 0.5 159.691
v  33.8193 -6.5 159.691
v  33.3724 0.5 159.241
v  33.3724 -6.5 159.241
v  32.9312 0.5 158.777
v  32.9312 -6.5 158.777
v  32.5004 0.5 158.303
v  32.5004 -6.5 158.303
v  32.076 0.5 157.813
v  32.076 -6.5 157.813
v  31.6525 0.5 157.302
v  31.6525 -6.5 157.302
v  31.2323 0.5 156.776
v  31.2323 -6.5 156.776
v  30.8178 0.5 156.237
v  30.8178 -6.5 156.237
v  30.4114 0.5 155.691
v  30.4114 -6.5 155.691
v  30.0154 0.5 155.141
v  30.0154 -6.5 155.141
v  29.6324 0.5 154.592
v  29.6324 -6.5 154.592
v  29.2608 0.5 154.036
v  29.2608 -6.5 154.036
v  28.898 0.5 153.469
v  28.898 -6.5 153.469
v  28.5446 0.5 152.894
v  28.5446 -6.5 152.894
v  28.2014 0.5 152.318
v  28.2014 -6.5 152.318
v  27.869 0.5 151.747
v  27.869 -6.5 151.747
v  27.5479 0.5 151.185
v  27.5479 -6.5 151.185
v  27.2388 0.5 150.64
v  27.2388 -6.5 150.64
v  25.3927 0.5 147.087
v  25.3927 -6.5 147.087
v  23.4922 0.5 143.198
v  23.4922 -6.5 143.198
v  23.2539 0.5 142.666
v  23.2539 -6.5 142.666
v  23.0254 0.5 142.147
v  23.0254 -6.5 142.147
v  22.8054 0.5 141.633
v  22.8054 -6.5 141.633
v  22.5923 0.5 141.121
v  22.5923 -6.5 141.121
v  22.3848 0.5 140.604
v  22.3848 -6.5 140.604
v  22.1814 0.5 140.077
v  22.1814 -6.5 140.077
v  21.9806 0.5 139.535
v  21.9806 -6.5 139.535
v  21.7828 0.5 138.982
v  21.7828 -6.5 138.982
v  21.5893 0.5 138.424
v  21.5893 -6.5 138.424
v  21.4003 0.5 137.86
v  21.4003 -6.5 137.86
v  21.216 0.5 137.285
v  21.216 -6.5 137.285
v  21.0367 0.5 136.697
v  21.0367 -6.5 136.697
v  20.8627 0.5 136.093
v  20.8627 -6.5 136.093
v  20.6941 0.5 135.469
v  20.6941 -6.5 135.469
v  20.5324 0.5 134.831
v  20.5324 -6.5 134.831
v  20.3779 0.5 134.185
v  20.3779 -6.5 134.185
v  20.229 0.5 133.525
v  20.229 -6.5 133.525
v  20.0842 0.5 132.846
v  20.0842 -6.5 132.846
v  19.9422 0.5 132.144
v  19.9422 -6.5 132.144
v  19.8013 0.5 131.413
v  19.8013 -6.5 131.413
v  19.6602 0.5 130.648
v  19.6602 -6.5 130.648
v  19.544 0.5 130.046
v  19.544 -6.5 130.046
v  19.4624 0.5 129.675
v  19.4624 -6.5 129.675
v  19.3907 0.5 129.341
v  19.3907 -6.5 129.341
v  19.3043 0.5 128.852
v  19.3043 -6.5 128.852
v  19.1785 0.5 128.013
v  19.1785 -6.5 128.013
v  18.9886 0.5 126.629
v  18.9886 -6.5 126.629
v  18.71 0.5 124.509
v  18.71 -6.5 124.509
v  15.0232 0.5 94.8934
v  15.0232 -6.5 94.8934
v  10.1358 0.5 54.2377
v  10.1358 -6.5 54.2377
v  -43.6021 -6.5 166.322
v  -41.4321 0.5 164.849
v  -41.4321 -6.5 164.849
v  -38.8619 0.5 163.222
v  -38.8619 -6.5 163.222
v  -43.6021 0.5 166.322
v  -38.483 0.5 162.972
v  -38.483 -6.5 162.972
v  -38.1028 0.5 162.724
v  -38.1028 -6.5 162.724
v  -37.7199 0.5 162.472
v  -37.7199 -6.5 162.472
v  -37.3326 0.5 162.21
v  -37.3326 -6.5 162.21
v  -36.9394 0.5 161.93
v  -36.9394 -6.5 161.93
v  -36.5389 0.5 161.627
v  -36.5389 -6.5 161.627
v  -36.1295 0.5 161.293
v  -36.1295 -6.5 161.293
v  -35.7069 0.5 160.928
v  -35.7069 -6.5 160.928
v  -35.2713 0.5 160.537
v  -35.2713 -6.5 160.537
v  -34.8272 0.5 160.124
v  -34.8272 -6.5 160.124
v  -34.3793 0.5 159.691
v  -34.3793 -6.5 159.691
v  -33.9324 0.5 159.241
v  -33.9324 -6.5 159.241
v  -33.4912 0.5 158.777
v  -33.4912 -6.5 158.777
v  -33.0604 0.5 158.303
v  -33.0604 -6.5 158.303
v  -32.636 0.5 157.813
v  -32.636 -6.5 157.813
v  -32.2125 0.5 157.302
v  -32.2125 -6.5 157.302
v  -31.7923 0.5 156.776
v  -31.7923 -6.5 156.776
v  -31.3778 0.5 156.237
v  -31.3778 -6.5 156.237
v  -30.9714 0.5 155.691
v  -30.9714 -6.5 155.691
v  -30.5754 0.5 155.141
v  -30.5754 -6.5 155.141
v  -30.1924 0.5 154.592
v  -30.1924 -6.5 154.592
v  -29.8208 0.5 154.036
v  -29.8208 -6.5 154.036
v  -29.458 0.5 153.469
v  -29.458 -6.5 153.469
v  -29.1046 0.5 152.894
v  -29.1046 -6.5 152.894
v  -28.7614 0.5 152.318
v  -28.7614 -6.5 152.318
v  -28.429 0.5 151.747
v  -28.429 -6.5 151.747
v  -28.1079 0.5 151.185
v  -28.1079 -6.5 151.185
v  -27.7988 0.5 150.64
v  -27.7988 -6.5 150.64
v  -25.9527 0.5 147.087
v  -25.9527 -6.5 147.087
v  -24.0522 0.5 143.198
v  -24.0522 -6.5 143.198
v  -23.8139 0.5 142.666
v  -23.8139 -6.5 142.666
v  -23.5854 0.5 142.147
v  -23.5854 -6.5 142.147
v  -23.3654 0.5 141.633
v  -23.3654 -6.5 141.633
v  -23.1523 0.5 141.121
v  -23.1523 -6.5 141.121
v  -22.9448 0.5 140.604
v  -22.9448 -6.5 140.604
v  -22.7414 0.5 140.077
v  -22.7414 -6.5 140.077
v  -22.5406 0.5 139.535
v  -22.5406 -6.5 139.535
v  -22.3428 0.5 138.982
v  -22.3428 -6.5 138.982
v  -22.1493 0.5 138.424
v  -22.1493 -6.5 138.424
v  -21.9603 0.5 137.86
v  -21.9603 -6.5 137.86
v  -21.776 0.5 137.285
v  -21.776 -6.5 137.285
v  -21.5967 0.5 136.697
v  -21.5967 -6.5 136.697
v  -21.4227 0.5 136.093
v  -21.4227 -6.5 136.093
v  -21.2541 0.5 135.469
v  -21.2541 -6.5 135.469
v  -21.0924 0.5 134.831
v  -21.0924 -6.5 134.831
v  -20.9379 0.5 134.185
v  -20.9379 -6.5 134.185
v  -20.789 0.5 133.525
v  -20.789 -6.5 133.525
v  -20.6442 0.5 132.846
v  -20.6442 -6.5 132.846
v  -20.5021 0.5 132.144
v  -20.5021 -6.5 132.144
v  -20.3613 0.5 131.413
v  -20.3613 -6.5 131.413
v  -20.2202 0.5 130.648
v  -20.2202 -6.5 130.648
v  -20.104 0.5 130.046
v  -20.104 -6.5 130.046
v  -20.0224 0.5 129.675
v  -20.0224 -6.5 129.675
v  -19.9507 0.5 129.341
v  -19.9507 -6.5 129.341
v  -19.8643 0.5 128.852
v  -19.8643 -6.5 128.852
v  -19.7385 0.5 128.013
v  -19.7385 -6.5 128.013
v  -19.5486 0.5 126.629
v  -19.5486 -6.5 126.629
v  -19.27 0.5 124.509
v  -19.27 -6.5 124.509
v  -15.5832 0.5 94.8934
v  -15.5832 -6.5 94.8934
v  -10.6958 0.5 54.2377
v  -10.6958 -6.5 54.2377

# 0 UV coordinates

# 248 vertex normals
vn 0.561617 0 -0.827397
vn 0.543858 0 -0.839177
vn 0.552769 0 -0.833334
vn 0.54043 0 -0.841389
vn 0.54595 0 -0.837817
vn 0.549641 0 -0.835401
vn 0.547833 0 -0.836588
vn 0.547107 0 -0.837062
vn 0.548192 0 -0.836353
vn 0.553124 0 -0.833099
vn 0.556961 0 -0.830538
vn 0.567054 0 -0.823681
vn 0.573289 0 -0.819353
vn 0.587664 0 -0.809105
vn 0.59578 0 -0.803148
vn 0.613308 0 -0.789844
vn 0.622696 0 -0.782464
vn 0.639344 0 -0.768921
vn 0.646637 0 -0.762798
vn 0.658504 0 -0.752577
vn 0.663113 0 -0.74852
vn 0.672277 0 -0.7403
vn 0.676832 0 -0.736137
vn 0.685989 0 -0.727611
vn 0.69059 0 -0.723246
vn 0.699937 0 -0.714205
vn 0.70468 0 -0.709525
vn 0.714405 0 -0.699732
vn 0.719382 0 -0.694614
vn 0.729656 0 -0.683815
vn 0.734945 0 -0.678126
vn 0.745516 0 -0.666488
vn 0.750795 0 -0.660536
vn 0.760608 0 -0.649211
vn 0.765154 0 -0.643848
vn 0.773704 0 -0.633547
vn 0.777717 0 -0.628615
vn 0.785317 0 -0.619094
vn 0.78891 0 -0.614509
vn 0.795784 0 -0.60558
vn 0.799069 0 -0.60124
vn 0.805403 0 -0.592727
vn 0.808456 0 -0.588557
vn 0.814403 0 -0.580299
vn 0.817299 0 -0.576213
vn 0.823865 0 -0.566786
vn 0.827521 0 -0.561435
vn 0.835038 0 -0.550192
vn 0.838893 0 -0.544296
vn 0.845785 0 -0.533523
vn 0.848836 0 -0.528656
vn 0.854255 0 -0.519854
vn 0.856633 0 -0.515926
vn 0.860789 0 -0.508962
vn 0.862573 0 -0.505932
vn 0.865587 0 -0.500759
vn 0.866821 0 -0.49862
vn 0.868755 0 -0.495241
vn 0.86946 0 -0.494003
vn 0.876017 0 -0.48228
vn 0.881746 0 -0.471725
vn 0.891109 0 -0.453789
vn 0.894812 0 -0.446444
vn 0.90325 0 -0.429116
vn 0.907936 0 -0.419109
vn 0.913493 0 -0.406855
vn 0.91447 0 -0.404654
vn 0.916666 0 -0.399655
vn 0.917882 0 -0.396855
vn 0.920514 0 -0.39071
vn 0.921927 0 -0.387365
vn 0.924899 0 -0.380212
vn 0.926455 0 -0.376404
vn 0.929649 0 -0.368446
vn 0.931284 0 -0.364293
vn 0.934573 0 -0.355773
vn 0.936224 0 -0.351403
vn 0.939116 0 -0.343601
vn 0.940364 0 -0.34017
vn 0.942624 0 -0.333857
vn 0.943639 0 -0.330975
vn 0.945857 0 -0.324584
vn 0.947055 0 -0.321073
vn 0.949593 0 -0.313485
vn 0.95093 0 -0.309407
vn 0.9537 0 -0.300761
vn 0.955129 0 -0.296191
vn 0.958037 0 -0.286644
vn 0.959512 0 -0.281666
vn 0.962468 0 -0.271396
vn 0.963945 0 -0.266103
vn 0.966723 0 -0.255824
vn 0.968029 0 -0.250839
vn 0.970417 0 -0.241434
vn 0.971506 0 -0.237016
vn 0.973562 0 -0.228425
vn 0.974531 0 -0.224253
vn 0.97634 0 -0.216243
vn 0.977181 0 -0.212406
vn 0.978736 0 -0.205125
vn 0.979451 0 -0.201682
vn 0.980758 0 -0.195226
vn 0.981353 0 -0.192213
vn 0.982429 0 -0.186638
vn 0.982912 0 -0.184075
vn 0.982901 0 -0.184132
vn 0.982407 0 -0.186752
vn 0.98023 0 -0.197859
vn 0.978482 0 -0.206334
vn 0.976996 0 -0.213258
vn 0.97733 0 -0.211723
vn 0.980181 0 -0.198104
vn 0.982552 0 -0.185987
vn 0.98624 0 -0.165319
vn 0.987633 0 -0.156781
vn 0.989554 0 -0.144162
vn 0.990139 0 -0.140089
vn 0.990968 0 -0.1341
vn 0.991225 0 -0.132185
vn 0.991771 0 -0.128026
vn 0.992058 0 -0.125781
vn 0.992513 0 -0.122142
vn 0.992683 0 -0.120749
vn 0.992852 0 -0.119355
vn -0.561617 0 -0.827397
vn -0.552769 0 -0.833334
vn -0.543858 0 -0.839177
vn -0.54043 0 -0.841389
vn -0.54595 0 -0.837817
vn -0.549643 0 -0.8354
vn -0.547835 0 -0.836586
vn -0.547109 0 -0.837062
vn -0.548191 0 -0.836353
vn -0.55312 0 -0.833101
vn -0.556958 0 -0.830541
vn -0.567053 0 -0.823682
vn -0.57329 0 -0.819353
vn -0.587667 0 -0.809103
vn -0.595781 0 -0.803147
vn -0.613308 0 -0.789844
vn -0.622696 0 -0.782464
vn -0.639344 0 -0.768921
vn -0.646637 0 -0.762798
vn -0.658505 0 -0.752576
vn -0.663115 0 -0.748518
vn -0.672279 0 -0.740298
vn -0.676833 0 -0.736136
vn -0.685988 0 -0.727612
vn -0.690588 0 -0.723248
vn -0.699936 0 -0.714206
vn -0.704681 0 -0.709524
vn -0.714407 0 -0.69973
vn -0.719383 0 -0.694613
vn -0.729655 0 -0.683816
vn -0.734943 0 -0.678129
vn -0.745514 0 -0.66649
vn -0.750794 0 -0.660537
vn -0.760606 0 -0.649213
vn -0.76515 0 -0.643852
vn -0.773701 0 -0.633551
vn -0.777716 0 -0.628616
vn -0.785317 0 -0.619093
vn -0.78891 0 -0.614509
vn -0.795783 0 -0.605582
vn -0.799067 0 -0.601241
vn -0.805403 0 -0.592728
vn -0.808455 0 -0.588557
vn -0.814404 0 -0.580299
vn -0.8173 0 -0.576212
vn -0.823867 0 -0.566783
vn -0.827523 0 -0.561431
vn -0.83504 0 -0.55019
vn -0.838893 0 -0.544296
vn -0.845784 0 -0.533525
vn -0.848836 0 -0.528657
vn -0.854255 0 -0.519854
vn -0.856633 0 -0.515926
vn -0.860789 0 -0.508962
vn -0.862574 0 -0.505931
vn -0.865587 0 -0.500758
vn -0.866821 0 -0.49862
vn -0.868754 0 -0.495244
vn -0.869456 0 -0.49401
vn -0.876013 0 -0.482287
vn -0.881744 0 -0.471728
vn -0.891109 0 -0.453789
vn -0.894812 0 -0.446443
vn -0.903249 0 -0.429117
vn -0.907934 0 -0.419113
vn -0.913492 0 -0.406857
vn -0.914471 0 -0.404652
vn -0.916668 0 -0.39965
vn -0.917883 0 -0.396851
vn -0.920514 0 -0.390708
vn -0.921927 0 -0.387364
vn -0.924899 0 -0.380212
vn -0.926455 0 -0.376404
vn -0.929649 0 -0.368447
vn -0.931283 0 -0.364297
vn -0.934571 0 -0.355776
vn -0.936224 0 -0.351403
vn -0.939116 0 -0.343599
vn -0.940364 0 -0.340171
vn -0.942623 0 -0.333858
vn -0.94364 0 -0.330974
vn -0.945858 0 -0.324581
vn -0.947056 0 -0.32107
vn -0.949593 0 -0.313484
vn -0.950929 0 -0.309408
vn -0.953699 0 -0.300764
vn -0.955128 0 -0.296194
vn -0.958036 0 -0.286646
vn -0.959512 0 -0.281667
vn -0.962468 0 -0.271396
vn -0.963945 0 -0.266103
vn -0.966723 0 -0.255824
vn -0.968029 0 -0.250839
vn -0.970418 0 -0.241433
vn -0.971507 0 -0.237012
vn -0.973562 0 -0.228422
vn -0.974531 0 -0.224253
vn -0.976339 0 -0.216247
vn -0.977181 0 -0.212411
vn -0.978735 0 -0.205127
vn -0.979451 0 -0.20168
vn -0.980759 0 -0.195221
vn -0.981354 0 -0.19221
vn -0.982429 0 -0.186639
vn -0.982911 0 -0.184079
vn -0.982901 0 -0.184137
vn -0.982407 0 -0.186755
vn -0.980231 0 -0.197858
vn -0.978482 0 -0.20633
vn -0.976997 0 -0.213253
vn -0.977331 0 -0.211718
vn -0.980182 0 -0.198099
vn -0.982553 0 -0.185982
vn -0.98624 0 -0.165317
vn -0.987633 0 -0.156782
vn -0.989554 0 -0.144164
vn -0.990139 0 -0.140091
vn -0.990968 0 -0.134101
vn -0.991225 0 -0.132186
vn -0.991771 0 -0.128026
vn -0.992058 0 -0.125781
vn -0.992513 0 -0.122142
vn -0.992683 0 -0.120749
vn -0.992852 0 -0.119355

# Mesh 'Layer_0' with 248 faces
g Layer_0
usemtl Lighting Strip
f  1//1 2//2 3//3
f  1//1 3//3 4//1
f  2//2 5//4 3//3
f  2//2 6//5 5//4
f  6//5 7//6 5//4
f  6//5 8//7 7//6
f  8//7 9//8 7//6
f  8//7 10//9 9//8
f  10//9 11//10 9//8
f  10//9 12//11 11//10
f  12//11 13//12 11//10
f  12//11 14//13 13//12
f  14//13 15//14 13//12
f  14//13 16//15 15//14
f  16//15 17//16 15//14
f  16//15 18//17 17//16
f  18//17 19//18 17//16
f  18//17 20//19 19//18
f  20//19 21//20 19//18
f  20//19 22//21 21//20
f  22//21 23//22 21//20
f  22//21 24//23 23//22
f  24//23 25//24 23//22
f  24//23 26//25 25//24
f  26//25 27//26 25//24
f  26//25 28//27 27//26
f  28//27 29//28 27//26
f  28//27 30//29 29//28
f  30//29 31//30 29//28
f  30//29 32//31 31//30
f  32//31 33//32 31//30
f  32//31 34//33 33//32
f  34//33 35//34 33//32
f  34//33 36//35 35//34
f  36//35 37//36 35//34
f  36//35 38//37 37//36
f  38//37 39//38 37//36
f  38//37 40//39 39//38
f  40//39 41//40 39//38
f  40//39 42//41 41//40
f  42//41 43//42 41//40
f  42//41 44//43 43//42
f  44//43 45//44 43//42
f  44//43 46//45 45//44
f  46//45 47//46 45//44
f  46//45 48//47 47//46
f  48//47 49//48 47//46
f  48//47 50//49 49//48
f  50//49 51//50 49//48
f  50//49 52//51 51//50
f  52//51 53//52 51//50
f  52//51 54//53 53//52
f  54//53 55//54 53//52
f  54//53 56//55 55//54
f  56//55 57//56 55//54
f  56//55 58//57 57//56
f  58//57 59//58 57//56
f  58//57 60//59 59//58
f  60//59 61//60 59//58
f  60//59 62//61 61//60
f  62//61 63//62 61//60
f  62//61 64//63 63//62
f  64//63 65//64 63//62
f  64//63 66//65 65//64
f  66//65 67//66 65//64
f  66//65 68//67 67//66
f  68//67 69//68 67//66
f  68//67 70//69 69//68
f  70//69 71//70 69//68
f  70//69 72//71 71//70
f  72//71 73//72 71//70
f  72//71 74//73 73//72
f  74//73 75//74 73//72
f  74//73 76//75 75//74
f  76//75 77//76 75//74
f  76//75 78//77 77//76
f  78//77 79//78 77//76
f  78//77 80//79 79//78
f  80//79 81//80 79//78
f  80//79 82//81 81//80
f  82//81 83//82 81//80
f  82//81 84//83 83//82
f  84//83 85//84 83//82
f  84//83 86//85 85//84
f  86//85 87//86 85//84
f  86//85 88//87 87//86
f  88//87 89//88 87//86
f  88//87 90//89 89//88
f  90//89 91//90 89//88
f  90//89 92//91 91//90
f  92//91 93//92 91//90
f  92//91 94//93 93//92
f  94//93 95//94 93//92
f  94//93 96//95 95//94
f  96//95 97//96 95//94
f  96//95 98//97 97//96
f  98//97 99//98 97//96
f  98//97 100//99 99//98
f  100//99 101//100 99//98
f  100//99 102//101 101//100
f  102//101 103//102 101//100
f  102//101 104//103 103//102
f  104//103 105//104 103//102
f  104//103 106//105 105//104
f  106//105 107//106 105//104
f  106//105 108//107 107//106
f  108//107 109//108 107//106
f  108//107 110//109 109//108
f  110//109 111//110 109//108
f  110//109 112//111 111//110
f  112//111 113//112 111//110
f  112//111 114//113 113//112
f  114//113 115//114 113//112
f  114//113 116//115 115//114
f  116//115 117//116 115//114
f  116//115 118//117 117//116
f  118//117 119//118 117//116
f  118//117 120//119 119//118
f  120//119 121//120 119//118
f  120//119 122//121 121//120
f  122//121 123//122 121//120
f  122//121 124//123 123//122
f  124//123 125//124 123//122
f  124//123 126//124 125//124
f  127//125 128//126 129//127
f  129//127 130//128 131//129
f  129//127 128//126 130//128
f  127//125 132//125 128//126
f  131//129 130//128 133//130
f  131//129 133//130 134//131
f  134//131 133//130 135//132
f  134//131 135//132 136//133
f  136//133 135//132 137//134
f  136//133 137//134 138//135
f  138//135 137//134 139//136
f  138//135 139//136 140//137
f  140//137 139//136 141//138
f  140//137 141//138 142//139
f  142//139 141//138 143//140
f  142//139 143//140 144//141
f  144//141 143//140 145//142
f  144//141 145//142 146//143
f  146//143 145//142 147//144
f  146//143 147//144 148//145
f  148//145 147//144 149//146
f  148//145 149//146 150//147
f  150//147 149//146 151//148
f  150//147 151//148 152//149
f  152//149 151//148 153//150
f  152//149 153//150 154//151
f  154//151 153//150 155//152
f  154//151 155//152 156//153
f  156//153 155//152 157//154
f  156//153 157//154 158//155
f  158//155 157//154 159//156
f  158//155 159//156 160//157
f  160//157 159//156 161//158
f  160//157 161//158 162//159
f  162//159 161//158 163//160
f  162//159 163//160 164//161
f  164//161 163//160 165//162
f  164//161 165//162 166//163
f  166//163 165//162 167//164
f  166//163 167//164 168//165
f  168//165 167//164 169//166
f  168//165 169//166 170//167
f  170//167 169//166 171//168
f  170//167 171//168 172//169
f  172//169 171//168 173//170
f  172//169 173//170 174//171
f  174//171 173//170 175//172
f  174//171 175//172 176//173
f  176//173 175//172 177//174
f  176//173 177//174 178//175
f  178//175 177//174 179//176
f  178//175 179//176 180//177
f  180//177 179//176 181//178
f  180//177 181//178 182//179
f  182//179 181//178 183//180
f  182//179 183//180 184//181
f  184//181 183//180 185//182
f  184//181 185//182 186//183
f  186//183 185//182 187//184
f  186//183 187//184 188//185
f  188//185 187//184 189//186
f  188//185 189//186 190//187
f  190//187 189//186 191//188
f  190//187 191//188 192//189
f  192//189 191//188 193//190
f  192//189 193//190 194//191
f  194//191 193//190 195//192
f  194//191 195//192 196//193
f  196//193 195//192 197//194
f  196//193 197//194 198//195
f  198//195 197//194 199//196
f  198//195 199//196 200//197
f  200//197 199//196 201//198
f  200//197 201//198 202//199
f  202//199 201//198 203//200
f  202//199 203//200 204//201
f  204//201 203//200 205//202
f  204//201 205//202 206//203
f  206//203 205//202 207//204
f  206//203 207//204 208//205
f  208//205 207//204 209//206
f  208//205 209//206 210//207
f  210//207 209//206 211//208
f  210//207 211//208 212//209
f  212//209 211//208 213//210
f  212//209 213//210 214//211
f  214//211 213//210 215//212
f  214//211 215//212 216//213
f  216//213 215//212 217//214
f  216//213 217//214 218//215
f  218//215 217//214 219//216
f  218//215 219//216 220//217
f  220//217 219//216 221//218
f  220//217 221//218 222//219
f  222//219 221//218 223//220
f  222//219 223//220 224//221
f  224//221 223//220 225//222
f  224//221 225//222 226//223
f  226//223 225//222 227//224
f  226//223 227//224 228//225
f  228//225 227//224 229//226
f  228//225 229//226 230//227
f  230//227 229//226 231//228
f  230//227 231//228 232//229
f  232//229 231//228 233//230
f  232//229 233//230 234//231
f  234//231 233//230 235//232
f  234//231 235//232 236//233
f  236//233 235//232 237//234
f  236//233 237//234 238//235
f  238//235 237//234 239//236
f  238//235 239//236 240//237
f  240//237 239//236 241//238
f  240//237 241//238 242//239
f  242//239 241//238 243//240
f  242//239 243//240 244//241
f  244//241 243//240 245//242
f  244//241 245//242 246//243
f  246//243 245//242 247//244
f  246//243 247//244 248//245
f  248//245 247//244 249//246
f  248//245 249//246 250//247
f  250//247 249//246 251//248
f  250//247 251//248 252//248

